# xmcd
#
# Track frame offsets: 
#        150
#        1980
#        41607
#        82202
#        139627
#        151202
#        190120
#        233470
#        279495
#
# Disc length: 4103 seconds
#
# Revision: 0
# Processed by: cddbd v1.5.2PL0 Copyright (c) Steve Scherf et al.
# Submitted via: ExactAudioCopy v0.99pb5
#
DISCID=68100509
DTITLE=Darkwater - Calling The Earth To Witness
DYEAR=2009
DGENRE=Metal
TTITLE0=2534167 (Intro)
TTITLE1=All Eyes On Me
TTITLE2=Again
TTITLE3=Habit
TTITLE4=The Play Part I
TTITLE5=The Play Part II
TTITLE6=Shattered
TTITLE7=Tallest Tree
TTITLE8=In My Dreams
EXTD=
EXTT0=
EXTT1=
EXTT2=
EXTT3=
EXTT4=
EXTT5=
EXTT6=
EXTT7=
EXTT8=
PLAYORDER=
